<svg width="30" height="24" viewBox="0 0 30 24" fill="none" xmlns="http://www.w3.org/2000/svg">
<path d="M21 8C22.5913 8 24.1174 8.63214 25.2426 9.75736C26.3679 10.8826 27 12.4087 27 14V21H23V14C23 13.4696 22.7893 12.9609 22.4142 12.5858C22.0391 12.2107 21.5304 12 21 12C20.4696 12 19.9609 12.2107 19.5858 12.5858C19.2107 12.9609 19 13.4696 19 14V21H15V14C15 12.4087 15.6321 10.8826 16.7574 9.75736C17.8826 8.63214 19.4087 8 21 8Z" stroke="#B69B72" stroke-width="2" stroke-linecap="round" stroke-linejoin="round"/>
<path d="M9 9H5V21H9V9Z" stroke="#B69B72" stroke-width="2" stroke-linecap="round" stroke-linejoin="round"/>
<path d="M7 6C8.10457 6 9 5.10457 9 4C9 2.89543 8.10457 2 7 2C5.89543 2 5 2.89543 5 4C5 5.10457 5.89543 6 7 6Z" stroke="#B69B72" stroke-width="2" stroke-linecap="round" stroke-linejoin="round"/>
</svg>
