<svg width="40" height="40" viewBox="0 0 40 40" fill="none" xmlns="http://www.w3.org/2000/svg">
<g clip-path="url(#clip0_5_2368)">
<path d="M19.08 0.044014C16.388 0.156013 13.78 0.816013 11.34 1.99601C7.284 3.96401 4.048 7.17201 2.064 11.192C1.492 12.36 0.992 13.68 0.688 14.844C0.46 15.708 0.376 16.128 0.18 17.38C0.0799999 18.012 0.0279999 18.944 0.0279999 20.02C0.0279999 21.124 0.0519999 21.54 0.164 22.48C0.776 27.508 3.388 32.232 7.34 35.46C9.268 37.036 11.296 38.156 13.7 38.98C14.968 39.412 16.528 39.744 18.08 39.904C18.996 40 21.004 40 21.92 39.904C26.084 39.472 29.696 37.944 32.9 35.264C33.516 34.752 34.752 33.516 35.264 32.9C37.732 29.948 39.248 26.576 39.796 22.82C39.988 21.512 40.036 19.404 39.904 18.12C39.648 15.58 39.008 13.352 37.896 11.12C35.392 6.08801 30.912 2.35601 25.5 0.788013C23.468 0.196011 21.32 -0.0519867 19.08 0.044014ZM21.56 0.820011C28.036 1.36001 33.732 5.06001 36.892 10.78C38.444 13.592 39.24 16.72 39.24 20C39.24 23.048 38.588 25.832 37.244 28.54C36.276 30.484 35.152 32.048 33.6 33.6C32.008 35.2 30.384 36.352 28.34 37.344C25.684 38.632 23.012 39.24 20 39.24C17.464 39.24 15.256 38.824 12.88 37.892C11.864 37.496 10.272 36.652 9.3 36C6.552 34.156 4.32 31.628 2.82 28.66C1.432 25.92 0.76 23.088 0.76 20.008C0.76 17.36 1.232 15.012 2.268 12.524C3.528 9.49201 5.708 6.69201 8.404 4.65201C11.288 2.46401 14.752 1.13202 18.36 0.824013C19.232 0.748013 20.676 0.748013 21.56 0.820011Z" fill="#3B3E43"/>
<path d="M10.92 4.75999V4.87999H11.94C12.884 4.87999 12.972 4.88799 13.188 4.96799C13.316 5.01199 13.484 5.092 13.56 5.13999C13.788 5.28399 14.076 5.62399 14.212 5.91199L14.34 6.17999L14.352 8.46799L14.364 10.76H14.452C14.5 10.76 14.644 10.744 14.768 10.72C14.896 10.7 15.3 10.664 15.668 10.64C16.04 10.616 16.42 10.588 16.516 10.576L16.692 10.552L16.664 7.956L16.632 5.35999H19.968C22.72 5.35999 23.392 5.37199 23.832 5.42399C25.256 5.58799 26.212 6.13599 26.628 7.01999C26.736 7.252 26.74 7.28399 26.74 7.88V8.49999L26.596 8.8C26.364 9.276 26.028 9.60399 25.492 9.87599C24.728 10.264 23.984 10.4 22.612 10.4H21.96V10.74V11.08H22.512C23.96 11.084 25.66 11.54 26.812 12.236C27.972 12.936 28.764 13.768 29.38 14.928C29.792 15.712 30.076 16.616 30.236 17.644C30.504 19.404 30.424 20.808 29.976 22.328C29.492 23.976 28.632 25.412 27.372 26.672L26.884 27.164L27.092 27.452C27.208 27.612 27.38 27.86 27.476 28.012L27.652 28.284L27.756 28.216C28.348 27.836 29.124 27.192 29.668 26.628C32 24.2 33.064 21.424 32.796 18.484C32.584 16.136 31.788 14.32 30.424 13.06C29.496 12.204 28.548 11.644 27.308 11.216C26.604 10.972 25.592 10.76 25.132 10.76C24.948 10.76 24.92 10.748 24.92 10.68C24.92 10.596 24.92 10.596 25.38 10.52C26.728 10.304 28.016 9.73199 28.592 9.09999C28.992 8.664 29.16 8.24399 29.16 7.68799C29.16 6.12399 27.684 5.13599 24.74 4.73199C24.312 4.672 23.528 4.66399 17.592 4.65199L10.92 4.636V4.75999Z" fill="#3B3E43"/>
<path d="M15.84 11.36C13.592 11.544 11.916 12.044 10.388 12.988C9.412 13.592 8.464 14.548 7.832 15.568C7.016 16.88 6.472 18.756 6.476 20.24C6.476 21.156 6.628 22.06 6.936 23C7.908 25.96 10.388 28.472 13.76 29.904L14.34 30.152V31.144C14.34 32.132 14.34 32.14 14.236 32.36C14.088 32.68 13.764 33.012 13.464 33.16C13.128 33.324 12.86 33.36 11.832 33.36H10.96V33.5V33.64H15.276H19.592L19.608 33.5L19.624 33.36H18.98C18.628 33.36 18.224 33.34 18.084 33.32C17.352 33.216 16.78 32.632 16.676 31.896C16.656 31.736 16.644 30.428 16.648 28.8L16.66 25.98L17.18 25.956C17.468 25.94 18.376 25.916 19.2 25.9C20.528 25.872 20.74 25.876 21.06 25.94C22.148 26.144 22.688 26.596 23.88 28.3C24.284 28.876 24.32 28.94 24.256 28.988C24.044 29.14 22.804 29.608 22.144 29.776C21.188 30.028 20.952 30.048 19.152 30.068L17.48 30.088V30.42V30.748L17.632 30.776C17.968 30.836 19.184 30.872 19.84 30.84C21.508 30.756 23.032 30.444 24.596 29.856C24.736 29.804 24.856 29.764 24.864 29.768C24.868 29.776 25.02 30.012 25.2 30.3C26.528 32.392 27.308 33.2 28.456 33.676C29.672 34.18 31.36 33.976 32.308 33.216C32.724 32.88 32.996 32.54 33.24 32.048C33.564 31.4 33.76 30.552 33.76 29.792C33.76 29.388 33.756 29.36 33.68 29.36C33.608 29.36 33.6 29.388 33.6 29.696C33.6 30.092 33.524 30.52 33.384 30.92C33.008 32.004 32.096 32.636 30.88 32.652C30.288 32.66 29.948 32.536 29.412 32.112C28.868 31.68 28.372 31.024 27.46 29.52C26.548 28.012 26.132 27.44 25.556 26.908C25.168 26.544 24.792 26.288 24.348 26.08C23.628 25.74 22.204 25.44 21.332 25.44C21.144 25.44 20.996 25.428 21.012 25.416C21.024 25.404 21.244 25.32 21.504 25.236C22.108 25.032 22.932 24.636 23.452 24.296C25.296 23.092 26.536 21.364 26.964 19.4C27.092 18.804 27.092 17.8 26.96 17.22C26.62 15.708 25.588 14.152 24.284 13.18C22.984 12.212 21.676 11.716 19.616 11.416C19.108 11.34 16.536 11.304 15.84 11.36ZM18.26 12.516C19.148 12.656 19.376 12.696 19.68 12.764C20.688 12.992 21.928 13.528 22.66 14.06C23.876 14.936 24.584 16.068 24.884 17.62C24.92 17.796 24.94 18.184 24.94 18.66C24.94 19.304 24.924 19.484 24.848 19.84C24.512 21.36 23.828 22.54 22.808 23.368C21.44 24.468 19.36 25.18 17.032 25.344L16.64 25.368V18.9V12.428L17.332 12.452C17.708 12.468 18.128 12.496 18.26 12.516ZM14.36 20.96C14.36 25.58 14.348 29.36 14.336 29.36C14.264 29.36 13.528 29.028 13 28.756C10.248 27.336 8.288 25.088 7.56 22.52C7.3 21.6 7.264 21.336 7.26 20.38C7.26 19.304 7.328 18.88 7.684 17.82C8.208 16.264 9.148 14.968 10.4 14.068C11.092 13.576 12.272 13.044 13.24 12.796C13.56 12.712 14.2 12.576 14.312 12.564C14.348 12.56 14.36 14.264 14.36 20.96Z" fill="#3B3E43"/>
</g>
<defs>
<clipPath id="clip0_5_2368">
<rect width="40" height="40" fill="white"/>
</clipPath>
</defs>
</svg>
