<svg width="26" height="26" viewBox="0 0 26 26" fill="none" xmlns="http://www.w3.org/2000/svg">
<path d="M23.205 11.8321C23.399 11.7466 23.5635 11.606 23.6784 11.4279C23.7932 11.2497 23.8532 11.0417 23.851 10.8298C23.8489 10.6178 23.7845 10.4112 23.666 10.2354C23.5476 10.0596 23.3801 9.92251 23.1844 9.84098L13.8992 5.61165C13.6169 5.48289 13.3103 5.41626 13 5.41626C12.6898 5.41626 12.3831 5.48289 12.1009 5.61165L2.81669 9.83665C2.62382 9.92112 2.45975 10.06 2.34454 10.2362C2.22933 10.4124 2.16797 10.6184 2.16797 10.829C2.16797 11.0395 2.22933 11.2455 2.34454 11.4218C2.45975 11.598 2.62382 11.7368 2.81669 11.8213L12.1009 16.055C12.3831 16.1837 12.6898 16.2504 13 16.2504C13.3103 16.2504 13.6169 16.1837 13.8992 16.055L23.205 11.8321Z" stroke="#B69B72" stroke-width="2.16667" stroke-linecap="round" stroke-linejoin="round"/>
<path d="M23.8333 10.8333V17.3333" stroke="#B69B72" stroke-width="2.16667" stroke-linecap="round" stroke-linejoin="round"/>
<path d="M6.5 13.5417V17.3334C6.5 18.1954 7.18482 19.022 8.40381 19.6315C9.62279 20.241 11.2761 20.5834 13 20.5834C14.7239 20.5834 16.3772 20.241 17.5962 19.6315C18.8152 19.022 19.5 18.1954 19.5 17.3334V13.5417" stroke="#B69B72" stroke-width="2.16667" stroke-linecap="round" stroke-linejoin="round"/>
</svg>
